<svg width="230" height="26" viewBox="0 0 230 26" fill="none" xmlns="http://www.w3.org/2000/svg">
<path d="M7.146 8.912C6.558 8.912 6.036 9.02 5.58 9.236C5.124 9.452 4.734 9.764 4.41 10.172C4.098 10.58 3.858 11.072 3.69 11.648C3.534 12.224 3.456 12.872 3.456 13.592C3.456 14.564 3.588 15.398 3.852 16.094C4.116 16.778 4.518 17.306 5.058 17.678C5.61 18.05 6.3 18.236 7.128 18.236C7.68 18.236 8.208 18.182 8.712 18.074C9.228 17.954 9.768 17.798 10.332 17.606V19.568C9.804 19.784 9.27 19.94 8.73 20.036C8.202 20.132 7.59 20.18 6.894 20.18C5.574 20.18 4.482 19.91 3.618 19.37C2.754 18.818 2.112 18.05 1.692 17.066C1.272 16.07 1.062 14.906 1.062 13.574C1.062 12.602 1.194 11.714 1.458 10.91C1.734 10.106 2.124 9.41 2.628 8.822C3.144 8.234 3.78 7.778 4.536 7.454C5.292 7.13 6.162 6.968 7.146 6.968C7.794 6.968 8.43 7.046 9.054 7.202C9.69 7.346 10.284 7.55 10.836 7.814L10.044 9.704C9.588 9.5 9.114 9.32 8.622 9.164C8.142 8.996 7.65 8.912 7.146 8.912ZM21.5958 15.104C21.5958 15.92 21.4878 16.64 21.2718 17.264C21.0558 17.888 20.7438 18.422 20.3358 18.866C19.9398 19.298 19.4478 19.628 18.8598 19.856C18.2838 20.072 17.6418 20.18 16.9338 20.18C16.2618 20.18 15.6438 20.072 15.0798 19.856C14.5158 19.628 14.0238 19.298 13.6038 18.866C13.1958 18.422 12.8778 17.888 12.6498 17.264C12.4218 16.64 12.3078 15.92 12.3078 15.104C12.3078 14.024 12.4938 13.112 12.8658 12.368C13.2378 11.612 13.7718 11.042 14.4678 10.658C15.1758 10.262 16.0098 10.064 16.9698 10.064C17.8818 10.064 18.6798 10.262 19.3638 10.658C20.0598 11.042 20.6058 11.612 21.0018 12.368C21.3978 13.112 21.5958 14.024 21.5958 15.104ZM14.6298 15.104C14.6298 15.788 14.7078 16.376 14.8638 16.868C15.0318 17.348 15.2838 17.714 15.6198 17.966C15.9678 18.218 16.4118 18.344 16.9518 18.344C17.5038 18.344 17.9478 18.218 18.2838 17.966C18.6318 17.714 18.8838 17.348 19.0398 16.868C19.1958 16.376 19.2738 15.788 19.2738 15.104C19.2738 14.408 19.1898 13.826 19.0218 13.358C18.8658 12.878 18.6138 12.518 18.2658 12.278C17.9298 12.026 17.4918 11.9 16.9518 11.9C16.1358 11.9 15.5418 12.176 15.1698 12.728C14.8098 13.28 14.6298 14.072 14.6298 15.104ZM29.1604 10.064C30.2524 10.064 31.1044 10.346 31.7164 10.91C32.3404 11.474 32.6524 12.386 32.6524 13.646V20H30.3844V14.096C30.3844 13.364 30.2404 12.818 29.9524 12.458C29.6644 12.086 29.2084 11.9 28.5844 11.9C27.6724 11.9 27.0484 12.188 26.7124 12.764C26.3764 13.328 26.2084 14.15 26.2084 15.23V20H23.9404V10.244H25.6864L26.0104 11.522H26.1364C26.3524 11.186 26.6164 10.91 26.9284 10.694C27.2404 10.478 27.5884 10.322 27.9724 10.226C28.3564 10.118 28.7524 10.064 29.1604 10.064ZM37.7573 9.578C37.7573 9.962 37.7393 10.34 37.7033 10.712C37.6793 11.072 37.6553 11.342 37.6313 11.522H37.7753C37.9793 11.186 38.2313 10.916 38.5312 10.712C38.8313 10.496 39.1613 10.334 39.5213 10.226C39.8933 10.118 40.2773 10.064 40.6733 10.064C41.4053 10.064 42.0353 10.19 42.5633 10.442C43.0913 10.694 43.4933 11.084 43.7693 11.612C44.0573 12.128 44.2012 12.806 44.2012 13.646V20H41.9333V14.096C41.9333 13.352 41.7893 12.8 41.5013 12.44C41.2133 12.08 40.7573 11.9 40.1333 11.9C39.5333 11.9 39.0593 12.032 38.7113 12.296C38.3633 12.548 38.1173 12.926 37.9733 13.43C37.8293 13.922 37.7573 14.528 37.7573 15.248V20H35.4893V6.32H37.7573V9.578ZM50.9621 10.064C51.8381 10.064 52.5881 10.244 53.2121 10.604C53.8481 10.952 54.3401 11.456 54.6881 12.116C55.0361 12.764 55.2101 13.556 55.2101 14.492V15.644H48.7661C48.7901 16.532 49.0361 17.222 49.5041 17.714C49.9721 18.194 50.6201 18.434 51.4481 18.434C52.0841 18.434 52.6481 18.374 53.1401 18.254C53.6441 18.122 54.1601 17.936 54.6881 17.696V19.514C54.2081 19.742 53.7101 19.91 53.1941 20.018C52.6781 20.126 52.0601 20.18 51.3401 20.18C50.3921 20.18 49.5461 20 48.8021 19.64C48.0701 19.268 47.4941 18.71 47.0741 17.966C46.6661 17.222 46.4621 16.298 46.4621 15.194C46.4621 14.078 46.6481 13.142 47.0201 12.386C47.4041 11.618 47.9321 11.042 48.6041 10.658C49.2761 10.262 50.0621 10.064 50.9621 10.064ZM50.9621 11.738C50.3621 11.738 49.8701 11.936 49.4861 12.332C49.1141 12.716 48.8921 13.292 48.8201 14.06H53.0141C53.0141 13.604 52.9361 13.202 52.7801 12.854C52.6361 12.506 52.4141 12.236 52.1141 12.044C51.8141 11.84 51.4301 11.738 50.9621 11.738ZM61.4391 20.18C60.5151 20.18 59.7111 20.006 59.0271 19.658C58.3551 19.298 57.8331 18.752 57.4611 18.02C57.1011 17.276 56.9211 16.328 56.9211 15.176C56.9211 13.976 57.1191 13.004 57.5151 12.26C57.9231 11.504 58.4811 10.952 59.1891 10.604C59.8971 10.244 60.7071 10.064 61.6191 10.064C62.2311 10.064 62.7771 10.124 63.2571 10.244C63.7371 10.364 64.1451 10.508 64.4811 10.676L63.8151 12.458C63.4431 12.314 63.0711 12.194 62.6991 12.098C62.3271 11.99 61.9671 11.936 61.6191 11.936C61.0791 11.936 60.6291 12.056 60.2691 12.296C59.9211 12.536 59.6631 12.896 59.4951 13.376C59.3271 13.844 59.2431 14.438 59.2431 15.158C59.2431 15.854 59.3271 16.436 59.4951 16.904C59.6751 17.372 59.9391 17.726 60.2871 17.966C60.6351 18.194 61.0671 18.308 61.5831 18.308C62.1351 18.308 62.6211 18.242 63.0411 18.11C63.4611 17.978 63.8571 17.798 64.2291 17.57V19.532C63.8571 19.76 63.4551 19.922 63.0231 20.018C62.6031 20.126 62.0751 20.18 61.4391 20.18ZM63.2031 22.304C63.2031 22.736 63.1131 23.102 62.9331 23.402C62.7531 23.702 62.4651 23.93 62.0691 24.086C61.6731 24.242 61.1511 24.32 60.5031 24.32C60.2751 24.32 60.0651 24.302 59.8731 24.266C59.6811 24.242 59.5131 24.212 59.3691 24.176V22.88C59.5131 22.916 59.6931 22.946 59.9091 22.97C60.1371 23.006 60.3411 23.024 60.5211 23.024C60.7851 23.024 60.9951 22.976 61.1511 22.88C61.3191 22.796 61.4031 22.634 61.4031 22.394C61.4031 22.142 61.2771 21.932 61.0251 21.764C60.7731 21.608 60.3951 21.494 59.8911 21.422L60.5931 20H62.0511L61.7271 20.702C61.9911 20.762 62.2311 20.864 62.4471 21.008C62.6751 21.152 62.8551 21.326 62.9871 21.53C63.1311 21.746 63.2031 22.004 63.2031 22.304ZM70.4026 10.064C71.6626 10.064 72.6166 10.34 73.2646 10.892C73.9246 11.432 74.2546 12.284 74.2546 13.448V20H72.6526L72.2026 18.65H72.1306C71.8546 18.998 71.5666 19.292 71.2666 19.532C70.9786 19.76 70.6426 19.922 70.2586 20.018C69.8866 20.126 69.4306 20.18 68.8906 20.18C68.3146 20.18 67.7926 20.072 67.3246 19.856C66.8686 19.64 66.5086 19.31 66.2446 18.866C65.9806 18.41 65.8486 17.84 65.8486 17.156C65.8486 16.148 66.2146 15.392 66.9466 14.888C67.6906 14.372 68.8126 14.09 70.3126 14.042L72.0046 13.988V13.502C72.0046 12.878 71.8546 12.434 71.5546 12.17C71.2546 11.906 70.8346 11.774 70.2946 11.774C69.8026 11.774 69.3286 11.846 68.8726 11.99C68.4166 12.134 67.9726 12.302 67.5406 12.494L66.8206 10.91C67.3006 10.658 67.8466 10.454 68.4586 10.298C69.0826 10.142 69.7306 10.064 70.4026 10.064ZM70.8166 15.428C69.8206 15.464 69.1306 15.638 68.7466 15.95C68.3626 16.25 68.1706 16.658 68.1706 17.174C68.1706 17.63 68.3086 17.96 68.5846 18.164C68.8606 18.368 69.2146 18.47 69.6466 18.47C70.3066 18.47 70.8646 18.284 71.3206 17.912C71.7766 17.528 72.0046 16.964 72.0046 16.22V15.392L70.8166 15.428ZM85.6605 10.064C86.9205 10.064 87.8745 10.34 88.5225 10.892C89.1825 11.432 89.5125 12.284 89.5125 13.448V20H87.9105L87.4605 18.65H87.3885C87.1125 18.998 86.8245 19.292 86.5245 19.532C86.2365 19.76 85.9005 19.922 85.5165 20.018C85.1445 20.126 84.6885 20.18 84.1485 20.18C83.5725 20.18 83.0505 20.072 82.5825 19.856C82.1265 19.64 81.7665 19.31 81.5025 18.866C81.2385 18.41 81.1065 17.84 81.1065 17.156C81.1065 16.148 81.4725 15.392 82.2045 14.888C82.9485 14.372 84.0705 14.09 85.5705 14.042L87.2625 13.988V13.502C87.2625 12.878 87.1125 12.434 86.8125 12.17C86.5125 11.906 86.0925 11.774 85.5525 11.774C85.0605 11.774 84.5865 11.846 84.1305 11.99C83.6745 12.134 83.2305 12.302 82.7985 12.494L82.0785 10.91C82.5585 10.658 83.1045 10.454 83.7165 10.298C84.3405 10.142 84.9885 10.064 85.6605 10.064ZM86.0745 15.428C85.0785 15.464 84.3885 15.638 84.0045 15.95C83.6205 16.25 83.4285 16.658 83.4285 17.174C83.4285 17.63 83.5665 17.96 83.8425 18.164C84.1185 18.368 84.4725 18.47 84.9045 18.47C85.5645 18.47 86.1225 18.284 86.5785 17.912C87.0345 17.528 87.2625 16.964 87.2625 16.22V15.392L86.0745 15.428ZM108.208 10.064C109.312 10.064 110.14 10.346 110.692 10.91C111.256 11.474 111.538 12.386 111.538 13.646V20H109.27V14.078C109.27 13.358 109.138 12.818 108.874 12.458C108.61 12.086 108.19 11.9 107.614 11.9C106.822 11.9 106.258 12.158 105.922 12.674C105.586 13.19 105.418 13.94 105.418 14.924V20H103.15V14.078C103.15 13.598 103.09 13.196 102.97 12.872C102.85 12.548 102.664 12.308 102.412 12.152C102.172 11.984 101.86 11.9 101.476 11.9C100.936 11.9 100.504 12.032 100.18 12.296C99.8563 12.548 99.6283 12.92 99.4963 13.412C99.3643 13.904 99.2983 14.51 99.2983 15.23V20H97.0303V10.244H98.7763L99.1003 11.522H99.2263C99.4303 11.186 99.6763 10.91 99.9643 10.694C100.264 10.478 100.594 10.322 100.954 10.226C101.326 10.118 101.698 10.064 102.07 10.064C102.802 10.064 103.42 10.19 103.924 10.442C104.428 10.682 104.806 11.06 105.058 11.576H105.238C105.538 11.048 105.958 10.664 106.498 10.424C107.05 10.184 107.62 10.064 108.208 10.064ZM118.268 10.064C119.528 10.064 120.482 10.34 121.13 10.892C121.79 11.432 122.12 12.284 122.12 13.448V20H120.518L120.068 18.65H119.996C119.72 18.998 119.432 19.292 119.132 19.532C118.844 19.76 118.508 19.922 118.124 20.018C117.752 20.126 117.296 20.18 116.756 20.18C116.18 20.18 115.658 20.072 115.19 19.856C114.734 19.64 114.374 19.31 114.11 18.866C113.846 18.41 113.714 17.84 113.714 17.156C113.714 16.148 114.08 15.392 114.812 14.888C115.556 14.372 116.678 14.09 118.178 14.042L119.87 13.988V13.502C119.87 12.878 119.72 12.434 119.42 12.17C119.12 11.906 118.7 11.774 118.16 11.774C117.668 11.774 117.194 11.846 116.738 11.99C116.282 12.134 115.838 12.302 115.406 12.494L114.686 10.91C115.166 10.658 115.712 10.454 116.324 10.298C116.948 10.142 117.596 10.064 118.268 10.064ZM118.682 15.428C117.686 15.464 116.996 15.638 116.612 15.95C116.228 16.25 116.036 16.658 116.036 17.174C116.036 17.63 116.174 17.96 116.45 18.164C116.726 18.368 117.08 18.47 117.512 18.47C118.172 18.47 118.73 18.284 119.186 17.912C119.642 17.528 119.87 16.964 119.87 16.22V15.392L118.682 15.428ZM131.064 20.198C131.064 19.97 131.07 19.724 131.082 19.46C131.094 19.184 131.118 18.938 131.154 18.722H131.046C130.782 19.118 130.422 19.46 129.966 19.748C129.51 20.036 128.91 20.18 128.166 20.18C127.038 20.18 126.126 19.76 125.43 18.92C124.734 18.068 124.386 16.808 124.386 15.14C124.386 14.024 124.548 13.094 124.872 12.35C125.196 11.594 125.646 11.024 126.222 10.64C126.798 10.256 127.464 10.064 128.22 10.064C128.952 10.064 129.552 10.208 130.02 10.496C130.488 10.772 130.86 11.114 131.136 11.522H131.208L131.442 10.244H133.332V24.32H131.064V20.198ZM128.886 18.38C129.438 18.38 129.876 18.278 130.2 18.074C130.536 17.858 130.776 17.534 130.92 17.102C131.076 16.67 131.16 16.13 131.172 15.482V15.158C131.172 14.102 131.004 13.298 130.668 12.746C130.332 12.194 129.726 11.918 128.85 11.918C128.13 11.918 127.59 12.206 127.23 12.782C126.882 13.346 126.708 14.144 126.708 15.176C126.708 16.22 126.882 17.018 127.23 17.57C127.59 18.11 128.142 18.38 128.886 18.38ZM144.887 10.244V20H143.105L142.799 18.74H142.691C142.487 19.076 142.223 19.352 141.899 19.568C141.575 19.772 141.221 19.922 140.837 20.018C140.453 20.126 140.057 20.18 139.649 20.18C138.929 20.18 138.305 20.054 137.777 19.802C137.249 19.55 136.847 19.166 136.571 18.65C136.295 18.122 136.157 17.444 136.157 16.616V10.244H138.425V16.166C138.425 16.886 138.569 17.432 138.857 17.804C139.145 18.164 139.601 18.344 140.225 18.344C140.837 18.344 141.317 18.218 141.665 17.966C142.013 17.702 142.259 17.324 142.403 16.832C142.547 16.34 142.619 15.734 142.619 15.014V10.244H144.887ZM150.046 10.244V20H147.778V10.244H150.046ZM148.912 6.482C149.248 6.482 149.542 6.572 149.794 6.752C150.046 6.92 150.172 7.226 150.172 7.67C150.172 8.102 150.046 8.414 149.794 8.606C149.542 8.786 149.248 8.876 148.912 8.876C148.564 8.876 148.264 8.786 148.012 8.606C147.772 8.414 147.652 8.102 147.652 7.67C147.652 7.226 147.772 6.92 148.012 6.752C148.264 6.572 148.564 6.482 148.912 6.482ZM158.166 10.064C159.258 10.064 160.11 10.346 160.722 10.91C161.346 11.474 161.658 12.386 161.658 13.646V20H159.39V14.096C159.39 13.364 159.246 12.818 158.958 12.458C158.67 12.086 158.214 11.9 157.59 11.9C156.678 11.9 156.054 12.188 155.718 12.764C155.382 13.328 155.214 14.15 155.214 15.23V20H152.946V10.244H154.692L155.016 11.522H155.142C155.358 11.186 155.622 10.91 155.934 10.694C156.246 10.478 156.594 10.322 156.978 10.226C157.362 10.118 157.758 10.064 158.166 10.064ZM166.763 10.244V20H164.495V10.244H166.763ZM165.629 6.482C165.965 6.482 166.259 6.572 166.511 6.752C166.763 6.92 166.889 7.226 166.889 7.67C166.889 8.102 166.763 8.414 166.511 8.606C166.259 8.786 165.965 8.876 165.629 8.876C165.281 8.876 164.981 8.786 164.729 8.606C164.489 8.414 164.369 8.102 164.369 7.67C164.369 7.226 164.489 6.92 164.729 6.752C164.981 6.572 165.281 6.482 165.629 6.482ZM174.883 10.064C175.975 10.064 176.827 10.346 177.439 10.91C178.063 11.474 178.375 12.386 178.375 13.646V20H176.107V14.096C176.107 13.364 175.963 12.818 175.675 12.458C175.387 12.086 174.931 11.9 174.307 11.9C173.395 11.9 172.771 12.188 172.435 12.764C172.099 13.328 171.931 14.15 171.931 15.23V20H169.663V10.244H171.409L171.733 11.522H171.859C172.075 11.186 172.339 10.91 172.651 10.694C172.963 10.478 173.311 10.322 173.695 10.226C174.079 10.118 174.475 10.064 174.883 10.064ZM183.48 9.578C183.48 9.962 183.462 10.34 183.426 10.712C183.402 11.072 183.378 11.342 183.354 11.522H183.498C183.702 11.186 183.954 10.916 184.254 10.712C184.554 10.496 184.884 10.334 185.244 10.226C185.616 10.118 186 10.064 186.396 10.064C187.128 10.064 187.758 10.19 188.286 10.442C188.814 10.694 189.216 11.084 189.492 11.612C189.78 12.128 189.924 12.806 189.924 13.646V20H187.656V14.096C187.656 13.352 187.512 12.8 187.224 12.44C186.936 12.08 186.48 11.9 185.856 11.9C185.256 11.9 184.782 12.032 184.434 12.296C184.086 12.548 183.84 12.926 183.696 13.43C183.552 13.922 183.48 14.528 183.48 15.248V20H181.212V6.32H183.48V9.578ZM196.649 10.064C197.909 10.064 198.863 10.34 199.511 10.892C200.171 11.432 200.501 12.284 200.501 13.448V20H198.899L198.449 18.65H198.377C198.101 18.998 197.813 19.292 197.513 19.532C197.225 19.76 196.889 19.922 196.505 20.018C196.133 20.126 195.677 20.18 195.137 20.18C194.561 20.18 194.039 20.072 193.571 19.856C193.115 19.64 192.755 19.31 192.491 18.866C192.227 18.41 192.095 17.84 192.095 17.156C192.095 16.148 192.461 15.392 193.193 14.888C193.937 14.372 195.059 14.09 196.559 14.042L198.251 13.988V13.502C198.251 12.878 198.101 12.434 197.801 12.17C197.501 11.906 197.081 11.774 196.541 11.774C196.049 11.774 195.575 11.846 195.119 11.99C194.663 12.134 194.219 12.302 193.787 12.494L193.067 10.91C193.547 10.658 194.093 10.454 194.705 10.298C195.329 10.142 195.977 10.064 196.649 10.064ZM197.063 15.428C196.067 15.464 195.377 15.638 194.993 15.95C194.609 16.25 194.417 16.658 194.417 17.174C194.417 17.63 194.555 17.96 194.831 18.164C195.107 18.368 195.461 18.47 195.893 18.47C196.553 18.47 197.111 18.284 197.567 17.912C198.023 17.528 198.251 16.964 198.251 16.22V15.392L197.063 15.428Z" fill="#00A868"/>
<path fill-rule="evenodd" clip-rule="evenodd" d="M215.3 6.15004C215.631 5.90152 216.101 5.96867 216.35 6.30004L220.85 12.3C221.05 12.5666 221.05 12.9333 220.85 13.2L216.35 19.1999C216.101 19.5313 215.631 19.5984 215.3 19.3499C214.969 19.1014 214.902 18.6313 215.15 18.2999L219.312 12.75L215.15 7.20003C214.902 6.86866 214.969 6.39857 215.3 6.15004Z" fill="#00A868"/>
</svg>
