<svg width="36" height="40" viewBox="0 0 36 40" fill="none" xmlns="http://www.w3.org/2000/svg">
<path fill-rule="evenodd" clip-rule="evenodd" d="M25 14.4551V8H2V28H13.25V30H2V36C2 36.8227 2.67728 37.5 3.5 37.5H23.5C24.3227 37.5 25 36.8227 25 36V26.875H27V36C27 37.9273 25.4272 39.5 23.5 39.5H3.5C1.57271 39.5 0 37.9273 0 36V3.5C0 1.57272 1.57271 0 3.5 0H23.5C25.4272 0 27 1.57272 27 3.5V14.4551H33.9304L32.3471 23.9551H18.786L16.911 13.3301H14V11.3301H18.5889L19.1404 14.4551H25ZM2 3.5C2 2.67728 2.67728 2 3.5 2H23.5C24.3227 2 25 2.67728 25 3.5V6H2V3.5ZM20.4639 21.9551L19.4933 16.4551H31.5695L30.6528 21.9551H20.4639Z" fill="#42EC9A"/>
<path fill-rule="evenodd" clip-rule="evenodd" d="M19.1875 26.0001C17.427 26.0001 16 27.4272 16 29.1876C16 30.948 17.427 32.3751 19.1875 32.3751C20.9479 32.3751 22.375 30.948 22.375 29.1876C22.375 27.4272 20.9479 26.0001 19.1875 26.0001ZM18 29.1876C18 28.5318 18.5316 28.0001 19.1875 28.0001C19.8433 28.0001 20.375 28.5318 20.375 29.1876C20.375 29.8434 19.8433 30.3751 19.1875 30.3751C18.5316 30.3751 18 29.8434 18 29.1876Z" fill="#42EC9A"/>
<path fill-rule="evenodd" clip-rule="evenodd" d="M32.1875 26.0001C30.427 26.0001 29 27.4272 29 29.1876C29 30.948 30.427 32.3751 32.1875 32.3751C33.9479 32.3751 35.375 30.948 35.375 29.1876C35.375 27.4272 33.9479 26.0001 32.1875 26.0001ZM31 29.1876C31 28.5318 31.5316 28.0001 32.1875 28.0001C32.8433 28.0001 33.375 28.5318 33.375 29.1876C33.375 29.8434 32.8433 30.3751 32.1875 30.3751C31.5316 30.3751 31 29.8434 31 29.1876Z" fill="#42EC9A"/>
</svg>
