<svg width="39" height="39" viewBox="0 0 39 39" fill="none" xmlns="http://www.w3.org/2000/svg">
<path fill-rule="evenodd" clip-rule="evenodd" d="M0 32.1665C0 28.7809 2.61438 26.1665 6 26.1665H16C19.3856 26.1665 22 28.7809 22 32.1665V37.1665C22 37.7188 21.5523 38.1665 21 38.1665H1C0.447714 38.1665 0 37.7188 0 37.1665V32.1665ZM6 28.1665C3.71895 28.1665 2 29.8855 2 32.1665V36.1665H20V32.1665C20 29.8855 18.2811 28.1665 16 28.1665H6Z" fill="#42EC9A"/>
<path fill-rule="evenodd" clip-rule="evenodd" d="M11 12C8.71895 12 7 13.7189 7 16V17.6666C7 19.9477 8.71895 21.6666 11 21.6666C13.2811 21.6666 15 19.9477 15 17.6666V16C15 13.7189 13.2811 12 11 12ZM5 16C5 12.6144 7.61438 10 11 10C14.3856 10 17 12.6144 17 16V17.6666C17 21.0523 14.3856 23.6666 11 23.6666C7.61438 23.6666 5 21.0523 5 17.6666V16Z" fill="#42EC9A"/>
<path fill-rule="evenodd" clip-rule="evenodd" d="M19.5 1C19.5 0.44771 19.9477 0 20.5 0H37.1667C37.719 0 38.1667 0.44771 38.1667 1V12.6666C38.1667 13.2189 37.719 13.6666 37.1667 13.6666H27.5L21.1 18.4666C20.797 18.6939 20.3916 18.7305 20.0528 18.5611C19.714 18.3917 19.5 18.0454 19.5 17.6666V1ZM21.5 2V15.6666L26.5667 11.8666C26.7398 11.7368 26.9503 11.6666 27.1667 11.6666H36.1667V2H21.5Z" fill="#42EC9A"/>
</svg>
