<svg width="40" height="32" viewBox="0 0 40 32" fill="none" xmlns="http://www.w3.org/2000/svg">
<path fill-rule="evenodd" clip-rule="evenodd" d="M14.6666 2C11.5371 2 9 4.53705 9 7.6667C9 10.7963 11.5371 13.3333 14.6666 13.3333C17.7962 13.3333 20.3333 10.7963 20.3333 7.6667C20.3333 4.53705 17.7962 2 14.6666 2ZM7 7.6667C7 3.43248 10.4324 1.92995e-09 14.6666 1.92995e-09C18.9009 1.92995e-09 22.3333 3.43248 22.3333 7.6667C22.3333 11.9009 18.9009 15.3333 14.6666 15.3333C10.4324 15.3333 7 11.9009 7 7.6667Z" fill="#42EC9A"/>
<path fill-rule="evenodd" clip-rule="evenodd" d="M25.8648 0.752201C26.0018 0.217181 26.5466 -0.105499 27.0816 0.031491C28.7307 0.453741 30.1924 1.41284 31.2362 2.75759C32.28 4.10234 32.8466 5.75625 32.8466 7.45857C32.8466 9.16087 32.28 10.8148 31.2362 12.1596C30.1924 13.5043 28.7307 14.4634 27.0816 14.8857C26.5466 15.0227 26.0018 14.7 25.8648 14.165C25.7278 13.6299 26.0505 13.0852 26.5855 12.9482C27.8044 12.6361 28.8848 11.9272 29.6563 10.9332C30.4278 9.93927 30.8466 8.71677 30.8466 7.45857C30.8466 6.20037 30.4278 4.97788 29.6563 3.98393C28.8848 2.98998 27.8044 2.28108 26.5855 1.96899C26.0505 1.832 25.7278 1.28723 25.8648 0.752201Z" fill="#42EC9A"/>
<path fill-rule="evenodd" clip-rule="evenodd" d="M2.24551 22.2455C3.68329 20.8077 5.63334 20 7.66666 20H21C23.0334 20 24.9834 20.8077 26.4212 22.2455C27.859 23.6833 28.6667 25.6333 28.6667 27.6667V31C28.6667 31.5523 28.219 32 27.6667 32C27.1144 32 26.6667 31.5523 26.6667 31V27.6667C26.6667 26.1638 26.0697 24.7224 25.007 23.6597C23.9443 22.597 22.5029 22 21 22H7.66666C6.16377 22 4.72243 22.597 3.65973 23.6597C2.59702 24.7224 2 26.1638 2 27.6667V31C2 31.5523 1.55228 32 1 32C0.447712 32 0 31.5523 0 31V27.6667C0 25.6333 0.807732 23.6833 2.24551 22.2455Z" fill="#42EC9A"/>
<path fill-rule="evenodd" clip-rule="evenodd" d="M33.032 20.7503C33.1701 20.2155 33.7155 19.894 34.2502 20.032C35.895 20.4567 37.3521 21.4156 38.3929 22.7581C39.4336 24.1007 39.999 25.7508 40.0002 27.4495L40.0003 30.7836C40.0003 31.3359 39.5525 31.7836 39.0003 31.7836C38.448 31.7836 38.0003 31.3359 38.0003 30.7836V27.451C37.9993 26.1955 37.5814 24.9758 36.8122 23.9835C36.0429 22.9912 34.9659 22.2824 33.7503 21.9685C33.2155 21.8304 32.8939 21.285 33.032 20.7503Z" fill="#42EC9A"/>
</svg>
